<svg id="color" enable-background="new 0 0 24 24" height="512" viewBox="0 0 24 24" width="512" xmlns="http://www.w3.org/2000/svg"><path d="m10.95 17.65c-.49-.368-1.2-.02-1.2.6v.686c-.614-.034-1.214-.079-1.783-.142-4.875-.502-6.467-1.69-6.467-2.044 0-.108.329-.617 1.928-1.149.332-.077.577-.375.577-.731 0-.493-.518-.865-.988-.713-2.002.655-3.017 1.527-3.017 2.593 0 2.466 5.464 3.294 7.808 3.536.62.068 1.271.119 1.942.154v.81c0 .62.71.967 1.2.6l2-1.5c.188-.142.3-.364.3-.6s-.111-.458-.3-.6z" fill="#607d8b"/><path d="m20.978 14.157c-.396-.129-.817.087-.946.481-.128.394.087.817.481.946 1.622.528 1.987 1.032 1.987 1.167 0 .443-2.057 1.678-7.148 2.103-.413.035-.719.397-.685.81.033.392.361.688.747.688l.063-.002c2.562-.217 8.523-.996 8.523-3.6 0-1.067-1.017-1.94-3.022-2.593z" fill="#607d8b"/><path d="m12 1 7 3-7 3-7-3z" fill="#ffc107"/><path d="m5 4 7 3v8l-7-3z" fill="#ffd54f"/><path d="m19 4-7 3v8l7-3z" fill="#ffca28"/><path d="m3.236 14.123c-.073 0-.147.011-.219.035-2.002.654-3.017 1.526-3.017 2.592 0 2.466 5.464 3.294 7.808 3.536.62.068 1.271.119 1.942.154v.81c0 .446.367.75.755.75.152 0 .307-.047.445-.15l1.05-.787v-2.625l-1.05-.787c-.138-.104-.293-.151-.445-.151-.388 0-.755.305-.755.751v.686c-.614-.034-1.214-.079-1.783-.142-4.875-.503-6.467-1.691-6.467-2.045 0-.108.329-.617 1.928-1.149.332-.077.577-.375.577-.731 0-.417-.37-.747-.769-.747z" fill="#546d79"/><path d="m12 1-7 3 7 3z" fill="#dea806"/><path d="m5 4v8l7 3v-8z" fill="#deb945"/></svg>